<?xml version="1.0" standalone="no"?>
<!DOCTYPE svg PUBLIC "-//W3C//DTD SVG 20010904//EN"
 "http://www.w3.org/TR/2001/REC-SVG-20010904/DTD/svg10.dtd">
<svg version="1.0" xmlns="http://www.w3.org/2000/svg"
 width="600.000000pt" height="600.000000pt" viewBox="0 0 600.000000 600.000000"
 preserveAspectRatio="xMidYMid meet">
<metadata>
Created by potrace 1.11, written by Peter Selinger 2001-2013
</metadata>
<g transform="translate(0.000000,600.000000) scale(0.100000,-0.100000)"
fill="#000000" stroke="none">
<path d="M4209 5897 c-13 -7 -55 -24 -94 -39 -65 -24 -95 -34 -217 -73 -72
-22 -256 -63 -323 -71 -33 -3 -69 -8 -80 -11 -41 -8 -273 -10 -355 -2 -268 25
-666 32 -870 17 -218 -17 -437 -54 -590 -98 -58 -17 -112 -32 -120 -34 -36
-10 -170 -70 -229 -102 -215 -118 -384 -320 -471 -560 -16 -44 -29 -65 -48
-75 -234 -118 -417 -361 -478 -634 -26 -116 -23 -410 5 -563 5 -26 12 -76 16
-112 4 -36 8 -67 10 -70 1 -3 6 -32 10 -65 3 -32 8 -62 10 -65 1 -3 6 -25 9
-50 3 -25 8 -56 11 -70 3 -14 8 -41 11 -60 5 -30 40 -206 76 -378 10 -48 9
-58 -10 -96 -39 -77 -56 -240 -37 -358 4 -23 9 -56 11 -73 23 -153 86 -287
179 -381 105 -106 208 -158 335 -168 35 -3 54 -9 55 -17 1 -8 5 -52 9 -99 9
-114 47 -294 86 -405 184 -520 620 -918 1150 -1048 58 -15 128 -29 155 -32 84
-10 85 -11 85 -61 l0 -44 580 0 580 0 0 43 0 43 43 2 c23 2 49 5 57 7 8 2 31
7 50 10 114 18 339 89 435 137 206 103 398 257 555 444 101 120 218 335 275
506 51 154 68 239 85 443 6 66 14 123 18 126 4 4 23 9 42 12 181 23 367 234
459 519 39 124 46 169 46 308 0 103 -3 120 -25 165 -31 62 -71 86 -155 93 -36
2 -65 6 -65 8 0 2 11 46 25 97 26 100 50 208 59 272 4 23 8 51 10 62 5 26 15
109 26 218 8 84 5 495 -5 555 -42 279 -145 529 -312 763 -96 133 -316 344
-441 423 -2 2 12 29 31 62 41 69 82 185 93 257 3 28 13 67 21 88 14 33 13 62
-2 120 -2 4 -3 12 -4 17 -2 15 -54 12 -78 -5 -39 -27 -241 -114 -346 -149
-121 -41 -266 -73 -359 -80 l-67 -5 45 93 c46 94 87 227 75 242 -10 14 -26 14
-52 1z"/>
</g>
</svg>
